:SAMPLES-PER-SECOND 30
:FRAME-RANGE 1-564
:FULLY-SPECIFIED
:DEGREES
476
root  36.245 37.6623 -131.552 171.128 -12.6896 175.45
RightUpLeg  -4.71503 40.3896 -12.3017
RightLeg  9.47467 6.26182 -2.97005
RightFoot  -13.5668 0.239981 17.0111
RightToes  -1.74624e-010 0 -3.6325e-017
Spine  10.9808 1.82573 2.3443
Spine1  -1.41735 3.40154 -9.88777
HEad  -11.7985 36.7807 -22.8182
LeftShoulder1  3.19905 -4.20449 -35.4604
LeftArm  45.84 -4.47554 -39.3113
LeftForeArm  -17.1043 -19.1943 -9.55661
LeftHand  -1.24494 -4.76729 14.4629
RightShoulder  3.41427 0.689606 69.1031
RightArm  22.0332 -0.356542 -6.3832
RightForeArm  12.6441 1.7304 16.4795
RightHand  2.15383 19.691 9.36581
LeftUpLeg  13.3056 2.79847 -5.98311
LeftLeg  9.22879 -29.6656 -1.59544
LeftFoot  -10.4835 -0.0362678 13.2376
LeftToes  -6.43926e-010 8.38805e-011 -3.16407e-011
477
root  36.6614 37.5476 -132.278 171.864 -16.8352 174.861
RightUpLeg  -1.72106 23.16 -10.9736
RightLeg  4.44627 19 -7.08582
RightFoot  -14.2988 0.546469 24.6089
RightToes  -1.74624e-010 0 -3.6325e-017
Spine  11.301 1.78785 2.85012
Spine1  -1.66503 3.50606 -10.6626
HEad  -12.2864 36.5776 -24.2533
LeftShoulder1  3.23589 -4.35099 -35.1627
LeftArm  44.6649 -4.82144 -39.3562
LeftForeArm  -15.2876 -17.4906 -11.2623
LeftHand  -1.26267 -4.91265 14.4648
RightShoulder  3.31281 0.57881 68.9216
RightArm  21.9947 0.612567 -6.67751
RightForeArm  12.5168 1.49266 16.5818
RightHand  2.08581 20.12 8.8912
LeftUpLeg  13.1881 2.1441 -5.80596
LeftLeg  10.6593 -33.0752 -1.82339
LeftFoot  -11.7714 0.121109 13.2653
LeftToes  -6.43926e-010 8.38805e-011 -3.16407e-011
478
root  37.1539 37.4769 -133.04 172.892 -19.6955 173.82
RightUpLeg  -0.932426 17.271 -10.9422
RightLeg  3.08897 23.1621 -8.60112
RightFoot  -14.807 0.765056 28.1105
RightToes  -1.74624e-010 0 -3.6325e-017
Spine  11.2605 2.52919 2.75085
Spine1  -1.25596 4.28036 -10.3017
HEad  -11.8564 36.4509 -24.9272
LeftShoulder1  3.1654 -4.09801 -35.5952
LeftArm  40.9072 -5.39333 -38.6054
LeftForeArm  -12.8752 -15.2188 -13.2209
LeftHand  -1.1366 -4.27028 13.8903
RightShoulder  3.64514 1.02988 68.3707
RightArm  20.8367 1.13225 -6.93884
RightForeArm  13.1448 1.10132 16.5396
RightHand  1.74272 19.5087 7.55078
LeftUpLeg  13.5368 1.17415 -6.11265
LeftLeg  10.3377 -34.9022 -0.933871
LeftFoot  -12.7952 0.229375 11.9461
LeftToes  -6.43926e-010 8.38805e-011 -3.16407e-011
479
root  37.6183 37.5827 -133.75 173.552 -22.6908 173.97
RightUpLeg  -0.508159 14.9317 -9.55775
RightLeg  3.67742 25.8758 -8.96138
RightFoot  -11.7002 -0.0155159 20.4299
RightToes  -1.74624e-010 0 -3.6325e-017
Spine  11.6762 2.68472 5.24236
Spine1  -1.1918 4.98536 -11.0411
HEad  -11.1188 37.0016 -24.8044
LeftShoulder1  3.14329 -4.10922 -35.2509
LeftArm  37.2256 -4.90101 -37.2577
LeftForeArm  -9.76748 -13.7042 -14.2139
LeftHand  -1.32033 -5.22496 14.6794
RightShoulder  4.05459 1.55524 68.1623
RightArm  19.9857 1.44551 -7.07627
RightForeArm  13.6043 0.805635 16.5109
RightHand  1.73946 19.6899 7.47604
LeftUpLeg  14.416 0.559303 -4.93408
LeftLeg  8.14843 -37.1901 1.03098
LeftFoot  -13.098 0.230155 9.83628
LeftToes  -6.43926e-010 8.38805e-011 -3.16407e-011
480
root  38.192 37.5699 -134.487 174.314 -26.0785 174.167
RightUpLeg  -0.522014 17.1293 -8.58228
RightLeg  5.67027 19.2134 -7.73388
RightFoot  -11.1026 -0.125347 23.2964
RightToes  -1.74624e-010 0 -3.6325e-017
Spine  11.9195 2.97284 6.60604
Spine1  -1.06563 5.51848 -11.1682
HEad  -9.99195 37.3442 -24.6838
LeftShoulder1  3.1547 -3.97689 -36.1124
LeftArm  34.3668 -5.14569 -35.1007
LeftForeArm  -9.1062 -12.3645 -15.1247
LeftHand  -1.38303 -5.23781 15.3367
RightShoulder  4.5788 2.30815 67.1726
RightArm  19.501 1.62744 -6.76007
RightForeArm  13.2539 0.693427 16.5018
RightHand  1.89317 19.8394 8.12496
LeftUpLeg  13.8432 -0.473096 -3.63925
LeftLeg  8.80996 -40.1437 1.53218
LeftFoot  -14.1643 0.298376 8.62934
LeftToes  -6.43926e-010 8.38805e-011 -3.16407e-011
481
root  38.7547 37.6049 -135.187 175.344 -30.2582 174.44
RightUpLeg  -0.713914 11.0865 -8.30754
RightLeg  5.97299 21.4085 -6.42129
RightFoot  -10.9984 -0.149395 24.3368
RightToes  -1.74624e-010 0 -3.6325e-017
Spine  12.3522 2.83108 7.04343
Spine1  -1.74278 5.28702 -10.4207
HEad  -9.51978 37.7612 -24.9044
LeftShoulder1  3.12649 -3.74621 -37.0349
LeftArm  28.8381 -3.96684 -32.9087
LeftForeArm  -7.63639 -11.2028 -15.6003
LeftHand  -1.33103 -4.74215 15.4688
RightShoulder  4.89798 2.81427 66.2602
RightArm  21.3397 2.522 -6.72999
RightForeArm  11.7849 1.22451 16.6845
RightHand  2.03245 20.7779 8.41581
LeftUpLeg  12.2673 -4.07991 -2.74442
LeftLeg  10.5592 -41.6486 1.05741
LeftFoot  -14.4102 0.292543 7.67005
LeftToes  -6.43926e-010 8.38805e-011 -3.16407e-011
482
root  39.2555 37.8194 -135.819 176.015 -34.7004 174.871
RightUpLeg  0.682339 3.06024 -7.22556
RightLeg  3.5198 24.1921 -7.69794
RightFoot  -9.07818 -0.53231 23.4812
RightToes  -1.74624e-010 0 -3.6325e-017
Spine  12.5074 2.66938 7.95436
Spine1  -1.70589 5.20507 -9.82648
HEad  -8.73039 37.287 -24.0327
LeftShoulder1  3.14649 -3.90406 -36.4072
LeftArm  21.6326 -3.16018 -32.4615
LeftForeArm  -4.47087 -8.38246 -16.6957
LeftHand  -1.4141 -4.90663 16.1529
RightShoulder  5.48289 3.86092 63.9993
RightArm  17.7427 1.23878 -5.39709
RightForeArm  14.0554 1.57453 15.9167
RightHand  1.26538 19.678 5.31124
LeftUpLeg  10.8135 -9.67475 -1.98211
LeftLeg  11.6781 -39.7402 0.344142
LeftFoot  -13.5882 0.173482 4.67774
LeftToes  -6.43926e-010 8.38805e-011 -3.16407e-011
483
root  39.7661 38.0149 -136.449 176.25 -38.7644 175.302
RightUpLeg  2.24641 -1.00828 -6.30102
RightLeg  1.57041 23.5927 -7.76598
RightFoot  -7.20276 -0.807644 20.7707
RightToes  -1.74624e-010 0 -3.6325e-017
Spine  13.0102 2.68453 8.63769
Spine1  -1.74707 5.28977 -9.36901
HEad  -7.42501 36.8779 -22.1329
LeftShoulder1  3.11542 -3.95349 -35.7274
LeftArm  16.861 -2.68217 -32.3599
LeftForeArm  -3.05649 -6.20941 -17.3596
LeftHand  -1.36881 -4.69402 15.9671
RightShoulder  5.60457 4.11172 63.3614
RightArm  20.1674 1.49051 -5.93727
RightForeArm  10.8857 4.05379 15.5478
RightHand  1.03474 19.4381 4.30243
LeftUpLeg  9.37048 -13.0895 -0.578345
LeftLeg  12.5242 -35.7553 -0.477783
LeftFoot  -12.6418 0.0917895 1.39872
LeftToes  -6.43926e-010 8.38805e-011 -3.16407e-011
484
root  40.1997 38.1539 -137.041 177.271 -42.1298 175.112
RightUpLeg  3.16199 -2.20464 -5.82822
RightLeg  -0.0943666 20.4574 -7.26254
RightFoot  -5.88005 -0.910698 18.1081
RightToes  -1.74624e-010 0 -3.6325e-017
Spine  12.5241 2.84615 9.00189
Spine1  -1.42884 5.52653 -9.5832
HEad  -7.26167 36.1201 -20.9006
LeftShoulder1  3.04969 -3.89365 -35.1881
LeftArm  15.2044 -1.3169 -31.8889
LeftForeArm  -2.58167 -6.24102 -17.1943
LeftHand  -1.29814 -4.61914 15.2754
RightShoulder  5.9474 4.76794 62.0808
RightArm  18.3216 1.14931 -5.43368
RightForeArm  12.063 4.83361 14.9383
RightHand  0.755064 19.5082 2.99715
LeftUpLeg  7.52066 -14.8119 0.397588
LeftLeg  13.3182 -31.3767 -1.24244
LeftFoot  -12.6171 0.0825524 0.611679
LeftToes  -6.43926e-010 8.38805e-011 -3.16407e-011
485
root  40.5551 38.314 -137.643 177.684 -44.3107 174.617
RightUpLeg  4.17987 -2.38718 -5.35347
RightLeg  -0.659721 18.1846 -6.8863
RightFoot  -4.38512 -0.983341 15.5949
RightToes  -1.74624e-010 0 -3.6325e-017
Spine  13.2607 3.0411 9.34283
Spine1  -2.05427 5.91523 -10.2022
HEad  -6.37966 36.8309 -18.9336
LeftShoulder1  2.98175 -3.82499 -34.6563
LeftArm  16.7321 0.509072 -30.7615
LeftForeArm  -3.18276 -7.00299 -16.9726
LeftHand  -1.30662 -5.11572 14.6762
RightShoulder  6.16196 5.09377 61.9042
RightArm  18.1324 1.58583 -5.65457
RightForeArm  11.5968 5.6771 14.6242
RightHand  0.45026 19.4402 1.5951
LeftUpLeg  7.66516 -13.223 0.686223
LeftLeg  12.7406 -27.5359 -0.803879
LeftFoot  -13.2456 0.0992936 1.1896
LeftToes  -6.43926e-010 8.38805e-011 -3.16407e-011
